<svg id="Group_12585" data-name="Group 12585" xmlns="http://www.w3.org/2000/svg" xmlns:xlink="http://www.w3.org/1999/xlink" width="39.81" height="40.377" viewBox="0 0 39.81 40.377">
  <defs>
    <clipPath id="clip-path">
      <rect id="Rectangle_3445" data-name="Rectangle 3445" width="39.81" height="40.377" fill="none"/>
    </clipPath>
  </defs>
  <g id="Group_12584" data-name="Group 12584" clip-path="url(#clip-path)">
    <path id="Path_37712" data-name="Path 37712" d="M6.5,253.619a1.993,1.993,0,0,1-.86-.874Q2.97,248.1.285,243.466a1.174,1.174,0,0,1,.5-1.892q2.574-1.488,5.149-2.973a1.136,1.136,0,0,1,1.781.474q2.749,4.756,5.493,9.515a1.131,1.131,0,0,1-.46,1.756q-2.845,1.644-5.7,3.272Z" transform="translate(0 -213.242)"/>
    <path id="Path_37713" data-name="Path 37713" d="M141.127,19.968a9.985,9.985,0,1,1,10.012-9.9,9.975,9.975,0,0,1-10.012,9.9m-3.623-7.12a3.092,3.092,0,0,0,2,2.855c.312.115.481.23.506.606a1.092,1.092,0,0,0,1.014.99c.512.062,1.116-.2,1.181-.7a1.194,1.194,0,0,1,1-1.072.849.849,0,0,0,.2-.122,3.136,3.136,0,0,0,.03-5.211c-1.051-.787-2.112-1.562-3.168-2.342a.763.763,0,0,1-.358-.914.783.783,0,0,1,.833-.529c.25,0,.5,0,.749,0,.637.008.879.224.958.85a1.188,1.188,0,0,0,1.258,1.095A1.2,1.2,0,0,0,144.8,7.046a3.01,3.01,0,0,0-1.677-2.627c-.437-.225-.833-.353-.9-.979a1.041,1.041,0,0,0-1.217-.764,1.186,1.186,0,0,0-1.035,1.076c-.023.169.035.348-.228.431a2.982,2.982,0,0,0-2.217,2.6,3.088,3.088,0,0,0,1.423,3.044c1.044.753,2.072,1.528,3.1,2.3a.777.777,0,0,1-.467,1.441c-.25,0-.5,0-.749,0-.666,0-.9-.2-.982-.855a1.182,1.182,0,0,0-2.359.141" transform="translate(-117.354 0.001)"/>
    <path id="Path_37714" data-name="Path 37714" d="M109.784,216.361c-1.551,0-3.1-.006-4.652.006a.547.547,0,0,1-.559-.308q-2.22-3.88-4.469-7.744a.574.574,0,0,1,0-.677,8.16,8.16,0,0,1,6-3.972,7.364,7.364,0,0,1,6.387,2.1.772.772,0,0,0,.483.177c1.419.014,2.839,0,4.258.011a1.571,1.571,0,1,1,0,3.137c-1.971,0-3.943,0-5.914,0a1.173,1.173,0,0,0-1.152,1.616,1.117,1.117,0,0,0,1.069.74c1.984.011,3.969.022,5.953-.01a4,4,0,0,0,2.3-.828q3.526-2.556,7.057-5.1a1.686,1.686,0,0,1,1.523-.309,1.551,1.551,0,0,1,1.155,1.226,1.566,1.566,0,0,1-.613,1.679c-1.074.8-2.16,1.586-3.246,2.371-1.81,1.307-3.615,2.622-5.439,3.91a10.5,10.5,0,0,1-6.476,1.975c-1.221-.03-2.444-.005-3.667-.005" transform="translate(-89.46 -182.129)"/>
  </g>
</svg>
