<svg xmlns="http://www.w3.org/2000/svg" xmlns:xlink="http://www.w3.org/1999/xlink" width="129.561" height="59.309" viewBox="0 0 129.561 59.309">
  <defs>
    <clipPath id="clip-path">
      <rect id="Rectangle_3428" data-name="Rectangle 3428" width="129.561" height="59.309" fill="none"/>
    </clipPath>
  </defs>
  <g id="Group_12553" data-name="Group 12553" transform="translate(0 0.004)">
    <g id="Group_12552" data-name="Group 12552" transform="translate(0 -0.004)" clip-path="url(#clip-path)">
      <path id="Path_37615" data-name="Path 37615" d="M354.029,575.912a7.792,7.792,0,0,0-4.2,2.036,4.4,4.4,0,0,0-1.022,1.276,10.117,10.117,0,0,0-.993,1.961c-.291.4-.06.917-.31,1.324a13.628,13.628,0,0,0,0,2.615c.251.405.015.927.315,1.321a8.011,8.011,0,0,0,4.41,4.7,7.769,7.769,0,0,0,8.092-.976c1.112-.839,2.156-1.769,3.232-2.656.91-.749.911-.748,1.685.2.643.668,1.315,1.306,1.964,1.969.739.7,1.483,1.4,2.215,2.115a.5.5,0,0,1-.045.791c-2.235,2.114-4.181,4.588-7.134,5.82a16.311,16.311,0,0,1-9.436,1.251,15.913,15.913,0,0,1-8.489-4.289,14.94,14.94,0,0,1-4.039-6.3c-.285-.276-.021-.726-.315-1a13.93,13.93,0,0,1-.4-6.636,8.009,8.009,0,0,0,.094-.886c.161-.315.047-.711.3-1a10.886,10.886,0,0,1,1-2.78c.193-.4.425-.776.629-1.168A18.124,18.124,0,0,1,345.667,571c.6-.469.722-.135.861.333.215.723-.257,1.317-.455,1.94a7.42,7.42,0,0,1-.461,1.1c-.329.641.107,1.543,1.058,2.469.031-.034.095-.09.09-.1-.913-1.261-.159-2.162.63-3.083.2-.234.593-.459.353-.894-.24-.065-.178-.254-.1-.368s.156-.065.116.082c.08.147.214.329.357.163.317-.37.778-.7.67-1.281a7.864,7.864,0,0,0-.313-.983.87.87,0,0,1,.345-1.3,16.954,16.954,0,0,1,6.963-1.347,15.177,15.177,0,0,1,10.4,4.122c.311.293.645.562.969.842a5.163,5.163,0,0,1,.688.782c.552.545,1.1,1.1,1.658,1.631.337.32.384.541,0,.914q-2.5,2.423-4.928,4.929c-.267.276-.4.2-.581.019-.688-.683-1.363-1.378-2.047-2.064-1.469-1.474-2.979-2.877-5.225-3a5.813,5.813,0,0,0-2.681.007" transform="translate(-323.274 -540.872)" fill="#f0bb1a"/>
      <path id="Path_37616" data-name="Path 37616" d="M908.905,579.471q-4.646,4.541-9.265,9.06c-.891.872-.883.881-1.754.013-1.875-1.871-3.742-3.75-5.632-5.606-.356-.35-.467-.552-.042-.963q2.472-2.394,4.863-4.87c.4-.412.609-.34.96.042.85.929.875.916,1.751.04q4.488-4.489,8.963-8.992a1.246,1.246,0,0,1,.991-.417c1.966.02,3.933.032,5.9-.008.565-.011.655.181.654.688q-.016,15.4.011,30.809c0,.542-.147.675-.675.667-1.993-.031-3.988-.041-5.981.006-.633.015-.751-.174-.749-.77.021-6.337.011-12.673.009-19.01,0-.264,0-.527,0-.691" transform="translate(-849.757 -540.921)" fill="#fff"/>
      <path id="Path_37617" data-name="Path 37617" d="M491.237,7.432a7.339,7.339,0,1,1-14.676-.174,7.338,7.338,0,1,1,14.676.174" transform="translate(-454.025 0.004)" fill="#fff"/>
      <path id="Path_37618" data-name="Path 37618" d="M24.484,240.239q-.008.143-.016.287c-.027.077-.034.174-.086.227-.144.147-.152,0-.167-.1a37.512,37.512,0,0,0-3.106-9.256c-.224-.508-.47-.557-.968-.451-.605.128-1.166.776-1.873.224-.062-.049-.325.143-.485.239q-7.751,4.628-15.5,9.263c-1.108.664-1.1.68-1.75-.394a3.557,3.557,0,0,0-.255-.42c-.483-.593-.32-.979.316-1.353,3.1-1.825,6.191-3.675,9.278-5.525,2.127-1.275,4.245-2.565,6.369-3.847.3-.184.575-.278.584-.8.006-.339.546-.706.9-.993.539-.435.6-.761.124-1.359a41.4,41.4,0,0,0-5.829-6.377c-.172-.143-.423-.27-.425-.62a4.977,4.977,0,0,1,2.242.832,18.848,18.848,0,0,1,6.982,6c.247.361.441.412.78.165.454-.33.787-.226,1.031.293a8.82,8.82,0,0,0,.629,1.053c.258.395.254.75-.214.928-.586.223-.417.515-.222.933a19.157,19.157,0,0,1,1.657,11.042" transform="translate(0 -208.633)" fill="#fff"/>
      <path id="Path_37619" data-name="Path 37619" d="M733.491,262.47c-.342-3.142,2.648-5.7,5.486-5.653a5.643,5.643,0,0,1-.053,11.285c-2.478.035-5.771-2.321-5.433-5.632" transform="translate(-698.779 -244.671)" fill="#fff"/>
      <path id="Path_37620" data-name="Path 37620" d="M125.068,711.341a4.044,4.044,0,1,1-8.085-.058,4.043,4.043,0,0,1,8.085.058" transform="translate(-111.451 -673.833)" fill="#fff"/>
      <path id="Path_37621" data-name="Path 37621" d="M567.615,442.535a2.83,2.83,0,0,1-2.724-2.8,2.77,2.77,0,1,1,2.724,2.8" transform="translate(-538.178 -416.327)" fill="#fff"/>
      <path id="Path_37622" data-name="Path 37622" d="M320.11,611.635a2.164,2.164,0,0,1-2.289,2.3,2.305,2.305,0,0,1-2.253-2.4,2.21,2.21,0,0,1,2.392-2.2,2.069,2.069,0,0,1,2.151,2.3" transform="translate(-300.645 -580.514)" fill="#fff"/>
      <path id="Path_37623" data-name="Path 37623" d="M650.352,734.232c.057-.284.282-.315.5-.279.725.123,1.524-.346,2.186.272l-2.681.007" transform="translate(-619.597 -699.191)" fill="#f0bb1a"/>
      <path id="Path_37624" data-name="Path 37624" d="M889.429,992.522a6.092,6.092,0,0,1-1.964-1.969,5.025,5.025,0,0,1,1.964,1.969" transform="translate(-845.497 -943.71)" fill="#f0bb1a"/>
      <path id="Path_37625" data-name="Path 37625" d="M539.9,785.3c-.061-.747.543-.962,1.022-1.276-.27.482-.432,1.051-1.022,1.276" transform="translate(-514.361 -746.947)" fill="#f0bb1a"/>
      <path id="Path_37626" data-name="Path 37626" d="M525.934,596.325a1.613,1.613,0,0,0-.346,1.3c-.575-.585-.459-1.022.346-1.3" transform="translate(-500.391 -568.125)" fill="#f0bb1a"/>
      <path id="Path_37627" data-name="Path 37627" d="M374.471,734.513a1.212,1.212,0,0,1-.629,1.168,1.178,1.178,0,0,1,.629-1.168" transform="translate(-356.163 -699.778)" fill="#f0bb1a"/>
      <path id="Path_37628" data-name="Path 37628" d="M512.045,937.087c-.6-.323-.234-.875-.315-1.321.4.371.313.856.315,1.321" transform="translate(-487.496 -891.514)" fill="#f0bb1a"/>
      <path id="Path_37629" data-name="Path 37629" d="M511.739,853.8c.068-.45-.263-.993.31-1.324,0,.466.091.952-.31,1.324" transform="translate(-487.505 -812.164)" fill="#f0bb1a"/>
      <path id="Path_37630" data-name="Path 37630" d="M352.675,998.171c.558.19.227.661.315,1-.518-.2-.249-.654-.315-1" transform="translate(-335.985 -950.967)" fill="#f0bb1a"/>
      <path id="Path_37631" data-name="Path 37631" d="M345.92,817.988a1.14,1.14,0,0,1-.3,1c.039-.351-.246-.8.3-1" transform="translate(-329.239 -779.305)" fill="#f0bb1a"/>
      <path id="Path_37632" data-name="Path 37632" d="M928.433,673.616c-.33-.172-.639-.362-.688-.782a.77.77,0,0,1,.688.782" transform="translate(-883.872 -641.016)" fill="#f0bb1a"/>
      <path id="Path_37633" data-name="Path 37633" d="M561.568,67.526c-.6-.245-.8.145-.886.7-.042.262-.053.555-.493.436s-.4-.363-.286-.678c.054-.154.094-.313.134-.471a.277.277,0,0,0-.225-.365c-.169-.05-.326-.053-.4.148-.038.1-.059.211-.1.31-.122.281.045.819-.55.7-.641-.133-.326-.622-.233-.914.3-.949-.546-.694-.861-.752-.76-.141-.527-.495-.306-.89.043-.077.2-.174.253-.151.908.362.832-.388.963-.862.225-.814.4-1.643.626-2.456.124-.437.094-.78-.4-.881-.419-.086-.431-.3-.341-.642.1-.389.379-.284.58-.205.742.29,1.315.325,1.378-.7.019-.314.221-.328.465-.235.2.076.444.108.331.432-.063.179-.1.367-.148.552-.059.24-.032.432.265.485.266.048.323-.119.369-.321a3.272,3.272,0,0,0,.132-.471c.024-.345.2-.393.495-.331.315.067.433.244.3.526-.315.661-.1.959.56,1.282a1.377,1.377,0,0,1,.263,2.413c-.146.137-.438.195-.112.461a1.436,1.436,0,0,1,.242,1.986c-.363.7-.911.947-2.009.9" transform="translate(-530.796 -56.747)"/>
      <path id="Path_37634" data-name="Path 37634" d="M806.753,307.459l1.647-2.781c.179-.276.332-.221.458.041a2.177,2.177,0,0,1-1.876,2.989c-.145,0-.256-.07-.229-.249" transform="translate(-768.597 -290.096)"/>
      <path id="Path_37635" data-name="Path 37635" d="M850.409,304.769l1.8,2.95c0,.056.013.14-.014.15a1.668,1.668,0,0,1-2.031-1.322c-.007-.485,0-.97,0-1.455,0-.164,0-.334.241-.322" transform="translate(-809.961 -290.356)"/>
      <path id="Path_37636" data-name="Path 37636" d="M805.036,299.233a2.719,2.719,0,0,0-.069,2.114,1.846,1.846,0,0,0,1.873.836c.191.217.314.436.016.665-.652-.033-1.132-.512-1.753-.674a5,5,0,0,0,.135,1.753.54.54,0,0,1-.873.035.2.2,0,0,1-.015-.077c.12-.518.405-1.2.025-1.521s-.895.258-1.352.438a1.518,1.518,0,0,1-.315.059c-.305-.242-.136-.459.035-.677,1.19.048,1.925-.583,1.924-1.649,0-.353.023-.707.007-1.059-.012-.26-.179-.083-.284-.073.117-.432.289-.656.647-.169" transform="translate(-764.588 -284.819)" fill="#fff"/>
      <path id="Path_37637" data-name="Path 37637" d="M806.11,362.633a4.175,4.175,0,0,1,2-.936c-.221.655.293,1.351-.329,1.916a2.018,2.018,0,0,1-1.474-.818l-.192-.162" transform="translate(-767.989 -344.592)"/>
      <path id="Path_37638" data-name="Path 37638" d="M800.917,384.58l1.474.818a.561.561,0,0,0,.83-.016,1.493,1.493,0,0,1,1.475-.818c.11.2.9.253.137.639-.935.379-1.906.725-1.781,2.036.01.106-.076.2-.139.29-.28.065-.352-.162-.341-.327.083-1.32-.939-1.592-1.843-1.981-.644-.421.04-.453.188-.642" transform="translate(-762.604 -366.378)" fill="#fff"/>
      <path id="Path_37639" data-name="Path 37639" d="M853.938,362.171l-1.475.818c-.247.026-.324-.092-.319-.329.012-.508,0-1.017,0-1.6a5.892,5.892,0,0,1,1.968.954l-.178.159" transform="translate(-811.846 -343.984)"/>
      <path id="Path_37640" data-name="Path 37640" d="M806.195,393.188c.04-.131-.012-.375.267-.2.484.3.967.6,1.462.874.286.161.3.4.311.687.014.31-.132.649.116.931a.133.133,0,0,1,.2.013c-.4.435-.58.064-.793-.218a18.8,18.8,0,0,0-1.561-2.083" transform="translate(-768.07 -374.343)"/>
      <path id="Path_37641" data-name="Path 37641" d="M851.8,396.036l-.2-.013a2.154,2.154,0,0,1,1.809-2.516c.153-.044.13.113.138.209l-1.75,2.319" transform="translate(-811.325 -374.891)"/>
      <path id="Path_37642" data-name="Path 37642" d="M166.069,750.242c-.245,0-.49-.012-.734,0-.623.038-1.194.048-.749-.854.074-.149.088-.31-.153-.369-.279-.068-.12-.338-.063-.37.78-.441.754-1.271.913-1.972s.674-.569,1.069-.508c.567.089.09.512.151.773s-.572.693.21.789c.184.022.092.3-.013.405a1.44,1.44,0,0,1-.418.244.787.787,0,0,0-.359.85c.029.4.428.179.662.209.267.035.543,0,.814.01.2.007.491-.093.454.272-.027.273-.1.538-.481.521-.434-.019-.87,0-1.3,0" transform="translate(-156.505 -710.833)"/>
      <path id="Path_37643" data-name="Path 37643" d="M603.6,459.147c-.3-.013-.488-.023-.673-.029s-.335-.1-.315-.292c.048-.445.679-.3.792-.762.036-.149.316.015.4.217.145.333,1.064.185.578.9-.258.381-.566.728-.849,1.086.03.058.042.118.078.141.265.171.853-.237.832.333-.014.38-.594.483-.89.741-.233.2-.464-.507-.923-.558-.2-.022-.077-.435.07-.636.255-.349.532-.682.9-1.144" transform="translate(-574.031 -436.346)"/>
      <path id="Path_37644" data-name="Path 37644" d="M347.629,629.914a1.215,1.215,0,0,1,1.252.7,1.346,1.346,0,0,1-.127,1.392c-.382.5-.949.437-1.492.436-.282,0-.3-.19-.285-.382a12.117,12.117,0,0,1-.048-1.473c.107-.55.207-.786.7-.674" transform="translate(-330.493 -600.099)"/>
      <path id="Path_37645" data-name="Path 37645" d="M615.085,164.438c-.344-.2-1.178.232-1.157-.592.011-.445-.123-1.277.635-1.34.852-.071,1.788.645,1.734,1.176-.069.674-.572.779-1.212.756" transform="translate(-584.894 -154.817)" fill="#fff"/>
      <path id="Path_37646" data-name="Path 37646" d="M628.02,112.853c-.268-.178-.968.17-.914-.5.033-.423-.1-1.141.562-1.242s1.458.57,1.434,1.055c-.021.443-.4.7-1.081.692" transform="translate(-597.447 -105.843)" fill="#fff"/>
      <path id="Path_37647" data-name="Path 37647" d="M358.712,641.127c-.022.38-.131.688-.566.774s-.691-.167-.52-.508c.087-.173.519-.048.359-.343-.363-.67-.383-.761.055-.706a.738.738,0,0,1,.672.783" transform="translate(-340.662 -610.05)" fill="#fff"/>
      <path id="Path_37648" data-name="Path 37648" d="M2153.47,971.614c.867,0,1.734-.021,2.6.008.436.015,1.077-.181,1.077.579a1,1,0,0,1-1.091,1.065c-1.2.023-2.411.067-3.61-.01-.828-.053-1.17.3-1.186,1.039-.019.863.04,1.727.037,2.591,0,.6.425.551.8.558q1.227.021,2.455,0c.6-.012,1.028.09,1.027.846,0,.786-.5.814-1.059.815-.1,0-.193,0-.289,0-2.963.081-2.94.082-3.035,3.064-.028.859.268,1.271,1.126,1.271q1.878,0,3.755.007c.561,0,1.082.058,1.1.809.028.919-.675.641-1.127.65-1.733.031-3.467-.02-5.2.029-.828.023-1.185-.152-1.171-1.1.057-3.706.048-7.414,0-11.121-.011-.922.337-1.17,1.185-1.113.863.058,1.732.012,2.6.012" transform="translate(-2048.025 -925.647)" fill="#f0bb1a"/>
      <path id="Path_37649" data-name="Path 37649" d="M2370.238,977.339q0,.881,0,1.762l.022-.023a21.294,21.294,0,0,1-2.883-.039c-1.546-.221-1.9.449-1.744,1.835a26.6,26.6,0,0,1,.013,3.029c0,.486.036.972-.688,1-.683.028-.8-.351-.8-.9q.01-5.771.005-11.542c0-.7.31-.9.984-.869,1.152.045,2.308-.022,3.462-.008.753.009,1.68-.3,1.688,1.058,0,.586,1.5.108,1.113,1.236a1.169,1.169,0,0,1-1.154.206,5.2,5.2,0,0,0-2.385-.378c-1.71.017-2.336.943-1.774,2.582.205.6.666.605,1.144.646a8.483,8.483,0,0,1,2.839.244l.162.161" transform="translate(-2252.354 -925.615)" fill="#f0bb1a"/>
      <path id="Path_37650" data-name="Path 37650" d="M1775.77,983.431q.014-4.332.026-8.663c0-.615.094-1.264-.885-1.277-.416-.005-.6-.45-.566-.874.047-.526.4-.733.892-.737.866-.006,1.733-.024,2.6-.008.36.007.852-.082.877.483.02.452.151,1.067-.535,1.151-.926.114-.848.795-.847,1.393.006,2.6.081,5.2.05,7.792-.007.6.086.928.677,1.028a.766.766,0,0,1,.681,1.043c-.133.657-.681.4-1.058.414-1.009.029-2.02,0-3.031-.01-.6-.755-.725-1.339.511-1.443a.927.927,0,0,0,.609-.292" transform="translate(-1690.306 -925.906)" fill="#f0bb1a"/>
      <path id="Path_37651" data-name="Path 37651" d="M2024.8,978.13c.02-1.586.044-3.171.055-4.757,0-.523.063-.97.741-.981.7-.012.908.379.907,1.007q-.01,5.7,0,11.4c0,.585-.2.865-.832.891-.788.033-.828-.425-.83-1.009,0-1.585-.034-3.17-.053-4.755a.511.511,0,0,0-.5-.191.678.678,0,0,1-.841-.725c-.024-.575.327-.739.831-.714a.641.641,0,0,0,.524-.168" transform="translate(-1927.757 -926.407)" fill="#f0bb1a"/>
      <path id="Path_37652" data-name="Path 37652" d="M1494.748,979.43c0-1.832,0-3.664,0-5.5,0-.516-.125-1.1.668-1.2.645-.078.868.254.885.827.014.486.344.676.749.722.368.042.835-.119.81.5-.018.462-.191.9-.7.974-.936.13-.942.74-.932,1.471q.055,3.759.029,7.52c0,.522.212,1.256-.725,1.267-.92.011-.76-.679-.763-1.235-.009-1.783,0-3.567,0-5.35h-.023" transform="translate(-1424.056 -926.723)" fill="#f0bb1a"/>
      <path id="Path_37653" data-name="Path 37653" d="M1930.326,985.842c-.864.226-1.173-.055-1.163-.992.04-3.74,0-7.482,0-11.222,0-.39-.172-.916.484-1.012a.894.894,0,0,1,1.127.828c.057,1-.233,2.1,1.238,2.355.076.013.064.53.094.813-1.15.241-1.484.981-1.482,2.1.005,1.946.039,3.892.075,5.837a1.484,1.484,0,0,1-.377,1.289" transform="translate(-1837.917 -926.606)" fill="#f0bb1a"/>
      <path id="Path_37654" data-name="Path 37654" d="M1652.267,985.767l-1.065,0a1.658,1.658,0,0,1-.224-1.226c.076-2.451.01-4.9.036-7.356.009-.842.105-1.69-1.142-1.718-.334-.008-.285-.449-.414-.69l.027-.477c1.239.022,1.363-1.377,2.269-1.78l.486.021c.722,1.507.2,3.108.308,4.66.168,2.49.051,5,.046,7.5a1.314,1.314,0,0,1-.327,1.067" transform="translate(-1571.455 -926.53)" fill="#f0bb1a"/>
      <path id="Path_37655" data-name="Path 37655" d="M1954.1,1066.619a16.518,16.518,0,0,0,.068-3.611c-.005-1.327.058-2.665.055-3.984,0-1.352.54-1.665,1.661-1.635.708.359,1.705.293,1.839,1.47.041.365.647.234,1.013.247-.184.539-1.2.086-1.124.963.06.732.932.31,1.114.836-.83.069-1.466-.032-1.7-1.063-.165-.718-1.455-.7-1.405-1.723a1.491,1.491,0,0,0-.65-.051c-.343.11-.269.466-.27.738-.007,2.209.011,4.418-.016,6.627-.005.451.313,1.14-.582,1.187" transform="translate(-1861.689 -1007.383)" fill="#f0bb1a"/>
      <path id="Path_37656" data-name="Path 37656" d="M2618.6,971.411c2.545.005,3.977,1.46,3.728,3.779-.042.39-.009.781-.583.795-.627.015-.691-.389-.7-.853a4.322,4.322,0,0,1,0-.722c.159-1.131-.383-1.454-1.422-1.332a17.189,17.189,0,0,1-1.734.016c-.768.012-1.4-.226-1.354-1.1.051-.941.865-.453,1.346-.571a3.016,3.016,0,0,1,.721-.008" transform="translate(-2492.797 -925.454)" fill="#f0bb1a"/>
      <path id="Path_37657" data-name="Path 37657" d="M2614.176,1093.848c.959.007,1.918.017,2.878.022.87,0,1.9-.323,1.791,1.226-.046.634,1.124.28,1.146,1.043a.923.923,0,0,1-1.224.019c-.786-1.121-1.958-.563-2.917-.542-1.4.031-1.956-.4-1.649-1.792Z" transform="translate(-2490.497 -1042.096)" fill="#f0bb1a"/>
      <path id="Path_37658" data-name="Path 37658" d="M2619.826,1142.8l1.224-.019c.014.9.025,1.806.043,2.709.011.547.02,1.077-.742,1.111-.253.012-.5.132-.5.407.013,1.39-.956.961-1.706.944-.275-.222.479-.654-.1-.733-.652-.09-1.422-.215-1.649.741-1.38.346-1.132-.638-1.147-1.406l-.024.023a31.592,31.592,0,0,1,3.3-.026c1.08.1,1.351-.352,1.3-1.31-.047-.811,0-1.626,0-2.44" transform="translate(-2491.556 -1088.741)" fill="#f0bb1a"/>
      <path id="Path_37659" data-name="Path 37659" d="M1708.3,986.194c.1-4.408.124-8.817-.028-13.225a2.588,2.588,0,0,1,.624,2.1c.037,3.306.015,6.613-.015,9.92,0,.455.3,1.143-.581,1.207" transform="translate(-1627.491 -926.957)" fill="#f0bb1a"/>
      <path id="Path_37660" data-name="Path 37660" d="M2491.792,1130c.975-.182,1.419.105,1.323,1.207-.1,1.142-.008,2.3,0,3.453,0,.536.054,1.092-.743,1.105-.821.014-.6-.612-.6-1.026-.011-1.587.026-3.174.046-4.761Z" transform="translate(-2373.909 -1076.514)" fill="#f0bb1a"/>
      <path id="Path_37661" data-name="Path 37661" d="M1587.949,1020.262c.087.115.167.324.261.33,1.8.126,1.45,1.452,1.455,2.577q.016,4.041.027,8.083a.907.907,0,0,1-.508-1.063c.343-2.565.045-5.145.172-7.715.02-.412.112-1.008-.382-1.128-.719-.175-.371.563-.557.861-.43.687-1.106.328-1.682.4a1.266,1.266,0,0,1-1.725,0l0,.008a.405.405,0,0,1,.061-.62c1.136.846,1.23-.319,1.65-.856.262.066.266.563.589.418.115-.052-.083-.419,0-.645a.729.729,0,0,0,.641-.646" transform="translate(-1509.946 -972.014)" fill="#f0bb1a"/>
      <path id="Path_37662" data-name="Path 37662" d="M2585.548,1008.168c-1.139.286-1.6-.157-1.488-1.318.068-.713.054-1.436.051-2.154,0-.7.549-.74.992-.776.621-.05.45.483.451.826,0,1.149-.019,2.3-.031,3.447Z" transform="translate(-2461.845 -956.441)" fill="#f0bb1a"/>
      <path id="Path_37663" data-name="Path 37663" d="M2483.061,1020.575h1.128c.024.808.005,1.621.083,2.424.1,1.015-.336,1.293-1.251,1.037l.028.021a3.177,3.177,0,0,1,.013-3.481" transform="translate(-2365.136 -972.311)" fill="#f0bb1a"/>
      <path id="Path_37664" data-name="Path 37664" d="M2585.26,1164.087c-.471-.105-1.148.286-1.362-.429a3.38,3.38,0,0,1,.038-2.113c.126-.35.517-.388.866-.346s.455.318.456.619c0,.764-.013,1.528-.022,2.292Z" transform="translate(-2461.562 -1106.273)" fill="#f0bb1a"/>
      <path id="Path_37665" data-name="Path 37665" d="M2633.13,1229.256c-.572-.824-.467-1.226.643-1.128.691.061,1.391.011,2.169.011-.212.74-.949.587-1.067,1.11l-1.745.008" transform="translate(-2508.285 -1170.036)" fill="#f0bb1a"/>
      <path id="Path_37666" data-name="Path 37666" d="M1560.56,1035.313l-.061.62a4.3,4.3,0,0,1-.839-.061c-.534-.143-.527-.593-.465-1.018a.7.7,0,0,1,.815-.608c.771.033.431.676.551,1.066" transform="translate(-1485.433 -985.336)" fill="#f0bb1a"/>
      <path id="Path_37667" data-name="Path 37667" d="M1587.292,1069.773h1.724c-.031.6.108,1.232-.891,1.245-1.063.014-.79-.68-.834-1.246" transform="translate(-1512.228 -1019.183)" fill="#f0bb1a"/>
      <path id="Path_37668" data-name="Path 37668" d="M1772.033,1216.426c0,.254-.073.521-.36.5-1.07-.072-1,.52-.76,1.233-.828-.092-.636-.746-.53-1.175.235-.946,1.1-.354,1.65-.56" transform="translate(-1686.569 -1158.901)" fill="#f0bb1a"/>
      <path id="Path_37669" data-name="Path 37669" d="M1624.136,1033.9c.354.3.834.536.527,1.132a.521.521,0,0,1-.611.238c-.71-.132-.4-.731-.5-1.143.13-.241.359-.23.584-.227" transform="translate(-1546.774 -985.011)" fill="#f0bb1a"/>
      <path id="Path_37670" data-name="Path 37670" d="M1652.3,971.4c-.609.781-.839,2.046-2.269,1.78.508-.468,1.229-.708,1.421-1.514.089-.373.5-.36.848-.266" transform="translate(-1571.997 -925.413)" fill="#f0bb1a"/>
      <path id="Path_37671" data-name="Path 37671" d="M2635.074,984.629a4.505,4.505,0,0,1-3.061-.019,4.648,4.648,0,0,1,3.061.019" transform="translate(-2507.545 -937.809)" fill="#ecbe1c"/>
      <path id="Path_37672" data-name="Path 37672" d="M1495.621,610.22a97.96,97.96,0,0,1-.117,10.273l.027-.03c-1.13.042-1.444-.447-1.391-1.6.131-2.874.083-5.756.106-8.635a1.5,1.5,0,0,1,1.376-.007" transform="translate(-1423.476 -581.206)" fill="#fff"/>
      <path id="Path_37673" data-name="Path 37673" d="M2149.133,584.859l-.144.013c-1.325.11-3.14-.583-3.845.292-.667.828-.2,2.568-.232,3.906a6.362,6.362,0,0,0,0,.866c.074.643-.2.808-.821.805s-.694-.276-.692-.785c.012-3.9.017-7.8-.008-11.7,0-.633.2-.828.828-.811,1.635.044,3.272.022,4.909.027.337,1.448.206,1.665-1.1,1.766a8.026,8.026,0,0,1-1.3.012c-1.157-.1-1.5.457-1.491,1.553.017,2.236-.027,2.236,2.208,2.277,1.882.034,2.049.211,1.685,1.778" transform="translate(-2042.033 -550.138)" fill="#fff"/>
      <path id="Path_37674" data-name="Path 37674" d="M1714.267,584.943c-1.012,0-2.027.039-3.035-.023-.791-.049-.979.269-.949,1,.053,1.3,0,2.6.02,3.9.008.566.046,1.007-.791.98-.737-.023-.721-.388-.72-.907.009-3.807.021-7.615-.014-11.422-.007-.752.2-1.006.971-.977,1.588.06,3.179.027,4.769.032.339,1.427.2,1.655-1.082,1.763-.286.024-.574.013-.861.016-1.932.022-1.932.022-1.929,1.916,0,1.879,0,1.879,2.106,1.91,1.8.027,2.176.308,1.92,1.446a.536.536,0,0,1-.406.361" transform="translate(-1627.971 -550.188)" fill="#fff"/>
      <path id="Path_37675" data-name="Path 37675" d="M2366.7,584.72c0-1.539-.07-3.081.021-4.614.063-1.059-.34-1.371-1.311-1.233-.33.047-.674-.013-1.008.017-.515.046-.676-.191-.651-.672.022-.439-.047-.872.625-.866q3.029.026,6.057-.006c.619-.008.683.329.7.816.024.586-.261.687-.781.732-2.2.187-2.2.207-2.2,2.482,0,2.74,0,5.481,0,8.221,0,.482.214,1.056-.7,1.054-.853,0-.762-.485-.759-1.026.008-1.635,0-3.269,0-4.9" transform="translate(-2251.964 -550.042)" fill="#fff"/>
      <path id="Path_37676" data-name="Path 37676" d="M2578.9,617.8c-1.17.252-1.543-.156-1.492-1.395.108-2.638.083-5.285.006-7.924-.028-.966.337-1.168,1.151-1.034.828.329.712,1.071.716,1.724.016,2.554.034,5.108,0,7.662a1.659,1.659,0,0,1-.194.772c-.06.065-.121.13-.182.2" transform="translate(-2455.517 -578.681)" fill="#fff"/>
      <path id="Path_37677" data-name="Path 37677" d="M2699.553,620.552l-1.127.021a1.827,1.827,0,0,1-.4-1.477q-.025-3.594,0-7.188a2.931,2.931,0,0,1,.158-1.13c.182-.44.551-.468.951-.457.428.011.593.254.583.643-.084,3.2.22,6.4-.159,9.588" transform="translate(-2570.423 -581.457)" fill="#fff"/>
      <path id="Path_37678" data-name="Path 37678" d="M2608.045,589.634c.007-3.037.023-6.073.012-9.11,0-.422.229-1.068-.577-1.056s-.542.666-.545,1.077c-.024,3.037-.015,6.074-.017,9.11-.143.467.282,1.06-.319,1.424a2.084,2.084,0,0,1-.383-1.51c-.073-2.651,0-5.3-.041-7.954-.022-1.441-.226-1.633-1.558-1.629s-1.564.2-1.59,1.616c-.034,1.928.026,3.858-.028,5.786-.017.624.191,1.4-.664,1.729-.031-2.773-.056-5.546-.1-8.318-.008-.507.173-1.065-.272-1.5l.3-.052a3.082,3.082,0,0,1,2.3-.4,2.058,2.058,0,0,0,2.017-.987c.468.483.254,1.625,1.458,1.423.312-.053.316.417.317.7q.007,4.621,0,9.243a.358.358,0,0,1-.311.4" transform="translate(-2478.915 -550.54)" fill="#fff"/>
      <path id="Path_37679" data-name="Path 37679" d="M1928.931,583.214c-.491-1.725-.09-3.486-.211-5.226-.041-.584.39-.532.776-.558.455-.03.742.1.72.616a41.47,41.47,0,0,1-.126,5.146,1.381,1.381,0,0,1-1.159.021" transform="translate(-1837.472 -550.119)" fill="#fff"/>
      <path id="Path_37680" data-name="Path 37680" d="M1988.745,734.489c.025,1.67.035,3.341.083,5.01.016.564-.06.872-.755.854-.718-.018-.7-.409-.725-.925-.08-1.607.235-3.227-.166-4.822l-.037.018a3.536,3.536,0,0,1,1.633-.1Z" transform="translate(-1893.174 -699.743)" fill="#fff"/>
      <path id="Path_37681" data-name="Path 37681" d="M1497.87,579.284l-1.376.007c.508-.449,1.823-.016,1.491-1.42-.068-.287.426-.28.7-.282q1.436-.009,2.873,0c.271,0,.759-.045.7.27-.21,1.193.791,1.088,1.387,1.421a1.343,1.343,0,0,1-1.186.35c-.463-.852-1.268-.442-1.916-.462a7.716,7.716,0,0,0-2.677.113" transform="translate(-1425.725 -550.271)" fill="#fff"/>
      <path id="Path_37682" data-name="Path 37682" d="M1837.214,741.257c-.012-1.517.033-3.038-.058-4.551-.056-.94.263-1.305,1.174-1.193h0a20.975,20.975,0,0,1-.03,5.749l-1.086,0" transform="translate(-1750.271 -700.712)" fill="#fff"/>
      <path id="Path_37683" data-name="Path 37683" d="M2612.3,576.347c.266,1.122-.163,1.525-1.309,1.414-.993-.1-2-.027-3-.032-.129-1.209.439-1.566,1.587-1.431a25.781,25.781,0,0,0,2.726.048" transform="translate(-2484.638 -549.02)" fill="#fff"/>
      <path id="Path_37684" data-name="Path 37684" d="M1527.491,824.867c.526,1.253.1,1.751-1.229,1.592a4.813,4.813,0,0,0-1.438.005c-1.13.212-1.668-.216-1.665-1.352l-.028.031c1.438-.386,2.926.071,4.37-.245Z" transform="translate(-1451.103 -785.859)" fill="#fff"/>
      <path id="Path_37685" data-name="Path 37685" d="M2612.5,816.84q-.014.7-.029,1.4a26.87,26.87,0,0,0-2.709.055c-1.179.136-1.815-.175-1.593-1.48l-.038.032a4.689,4.689,0,0,1,4.369-.008" transform="translate(-2484.792 -777.701)" fill="#fff"/>
      <path id="Path_37686" data-name="Path 37686" d="M2022.77,581.51c1.448-.325,1.515-1.355,1.393-2.567-.09-.9.008-1.821-.023-2.731-.024-.71.313-.893.964-.891.679,0,.789.366.784.917-.013,1.438-.005,2.876-.01,4.315,0,.285-.01.79-.228.759-1.251-.179-1.07.995-1.548,1.531a2.492,2.492,0,0,0-1.331-1.333" transform="translate(-1927.113 -548.114)" fill="#fff"/>
      <path id="Path_37687" data-name="Path 37687" d="M1615.329,767.266c.424-.611.151-1.3.192-1.947.031-.505-.028-.927.71-.945.791-.019.854.4.81.994a2.608,2.608,0,0,0,.005.574c.224,1.5-.5,1.729-1.727,1.292l.01.031" transform="translate(-1538.931 -728.226)" fill="#fff"/>
      <path id="Path_37688" data-name="Path 37688" d="M2272.978,607.856c.673,1.265.213,2.618.292,3.928.023.393-.36.362-.643.365-.5.005-.486-.359-.486-.7,0-1.2,0-2.4,0-3.6l.834.011" transform="translate(-2164.691 -579.1)" fill="#fff"/>
      <path id="Path_37689" data-name="Path 37689" d="M1838.148,608.281c.022,1.152.05,2.3.063,3.455,0,.372.071.782-.527.81-.683.033-.631-.414-.631-.853a22.9,22.9,0,0,0-.021-2.3c-.077-.748.276-1.033.92-1.14a.475.475,0,0,1,.2.032" transform="translate(-1750.149 -579.484)" fill="#fff"/>
      <path id="Path_37690" data-name="Path 37690" d="M1620.753,613.844c.3-.454.774-.293,1.186-.35a6.321,6.321,0,0,1,.133,1.982c.054.535-.166.768-.734.767-.624,0-.7-.354-.679-.831.027-.523.062-1.045.094-1.567" transform="translate(-1544.015 -584.482)" fill="#fff"/>
      <path id="Path_37691" data-name="Path 37691" d="M1934,699.384l1.159-.021c1.111.107,2.229.21,1.357,1.807l.037-.019c-.61-.157-1.455.074-1.317-1.1.115-.975-.911-.262-1.236-.665" transform="translate(-1842.537 -666.29)" fill="#fff"/>
      <path id="Path_37692" data-name="Path 37692" d="M2021.05,704.289c1.2-.308,1.634.143,1.331,1.333l-1.416.018.034.032q.026-.692.051-1.383" transform="translate(-1925.394 -670.893)" fill="#fff"/>
      <path id="Path_37693" data-name="Path 37693" d="M1861.459,741.649q.015-2.874.03-5.749a10.741,10.741,0,0,1-.03,5.749" transform="translate(-1773.431 -701.099)" fill="#fff"/>
      <path id="Path_37694" data-name="Path 37694" d="M2057.995,583.9q0-1.081,0-2.162c0-.369.078-.652.546-.657.435,0,.6.2.6.606q-.007,2.162,0,4.324c0,.38-.088.629-.551.647-.573.022-.6-.323-.6-.74,0-.673,0-1.345,0-2.018Z" transform="translate(-1960.666 -553.604)" fill="#fff"/>
    </g>
  </g>
</svg>
