<svg xmlns="http://www.w3.org/2000/svg" xmlns:xlink="http://www.w3.org/1999/xlink" width="126.861" height="126.861" viewBox="0 0 126.861 126.861">
  <defs>
    <linearGradient id="linear-gradient" x1="0.5" x2="0.5" y2="1" gradientUnits="objectBoundingBox">
      <stop offset="0" stop-color="#ffb81e"/>
      <stop offset="1" stop-color="#fecf67"/>
    </linearGradient>
    <filter id="Ellipse_1" x="0" y="0" width="126.861" height="126.861" filterUnits="userSpaceOnUse">
      <feOffset dy="10" input="SourceAlpha"/>
      <feGaussianBlur stdDeviation="10" result="blur"/>
      <feFlood flood-opacity="0.161"/>
      <feComposite operator="in" in2="blur"/>
      <feComposite in="SourceGraphic"/>
    </filter>
    <clipPath id="clip-path">
      <rect id="Rectangle_3446" data-name="Rectangle 3446" width="27.395" height="31.873" fill="none"/>
    </clipPath>
  </defs>
  <g id="Group_12589" data-name="Group 12589" transform="translate(30 20)">
    <g transform="matrix(1, 0, 0, 1, -30, -20)" filter="url(#Ellipse_1)">
      <ellipse id="Ellipse_1-2" data-name="Ellipse 1" cx="33.431" cy="33.431" rx="33.431" ry="33.431" transform="translate(30 20)" fill="url(#linear-gradient)"/>
    </g>
    <g id="Group_12588" data-name="Group 12588" transform="translate(19.733 17.494)">
      <g id="Group_12587" data-name="Group 12587" clip-path="url(#clip-path)">
        <path id="Path_37715" data-name="Path 37715" d="M3.051,0H20.17a4.23,4.23,0,0,1,.548.391q3.15,3.077,6.29,6.164a1.2,1.2,0,0,1,.387.91q-.007,10.409,0,20.819a3.477,3.477,0,0,1-3.6,3.587q-10.1,0-20.2,0a3.942,3.942,0,0,1-.893-.094A3.464,3.464,0,0,1,0,28.308Q0,23,0,17.7,0,10.648,0,3.6A3.4,3.4,0,0,1,1.806.448,7.564,7.564,0,0,1,3.051,0M19.01,1.868H3.682A1.636,1.636,0,0,0,1.869,3.673q0,12.263,0,24.526A1.637,1.637,0,0,0,3.683,30H23.7a1.639,1.639,0,0,0,1.827-1.823q0-9.773,0-19.546V8.268h-.363c-1.276,0-2.552,0-3.828,0a2.184,2.184,0,0,1-2.321-2.32c0-1.069,0-2.137,0-3.206V1.868M23.969,6.4,20.887,3.143c0,1.063-.007,2.022.005,2.981,0,.217.185.277.381.277h2.7" transform="translate(0)"/>
        <path id="Path_37716" data-name="Path 37716" d="M105.15,237.521q3.252,0,6.5,0a.93.93,0,0,1,.906,1.34.917.917,0,0,1-.883.526h-2.365q-5.321,0-10.643,0a.937.937,0,0,1-1.029-.86.925.925,0,0,1,.975-1.005c1.463,0,2.925,0,4.388,0h2.147" transform="translate(-91.548 -222.706)"/>
        <path id="Path_37717" data-name="Path 37717" d="M104.459,359.159q-2.972,0-5.944,0a.934.934,0,1,1-.024-1.865c1.307,0,2.614,0,3.921,0q3.984,0,7.967,0a.937.937,0,0,1,.956,1.27.953.953,0,0,1-.963.6q-2.957,0-5.913,0" transform="translate(-91.424 -335.006)"/>
        <path id="Path_37718" data-name="Path 37718" d="M103.814,297.406c1.763,0,3.526,0,5.289,0a.936.936,0,1,1-.01,1.867q-2.5,0-5.009,0-2.785,0-5.569,0a.939.939,0,0,1-.975-1.169.951.951,0,0,1,.985-.7q2.645,0,5.289,0" transform="translate(-91.426 -278.855)"/>
      </g>
    </g>
  </g>
</svg>
